:FULLY-SPECIFIED
:FORCE-ALL-JOINTS-BE-3DOF
:DEGREES
510
root 5.80315 16.2745 -5.3286 -162.951 80.4667 -168.013
lfemur -25.3245 -16.157 -22.4521
ltibia 52.942 0 0
lfoot -26.237 -5.03415 0
ltoes 8.86595 0 0
rfemur -57.4651 6.50477 5.07599
rtibia 62.0232 0 0
rfoot 9.83673 9.27772 0
rtoes -19.0974 0 0
lowerback 8.41721 0.0825599 -0.623473
upperback 1.45232 0.268739 2.77473
thorax -3.23466 0.198673 3.19726
lowerneck -8.60845 -11.8295 -3.54016
upperneck 11.0725 -15.7609 2.59143
head 5.24621 -7.67678 0.184178
lclavicle -1.60956e-14 1.35167e-14 0
lhumerus -47.5067 -33.8016 117.281
lradius 57.1164 0 0
lwrist 7.15699 0 0
lhand 4.93775 -0.639094 0
lfingers 7.12502 0 0
lthumb 30.2859 26.6371 0
rclavicle -1.60956e-14 1.35167e-14 0
rhumerus -21.67 42.4945 -83.275
rradius 110.552 0 0
rwrist -0.657224 0 0
rhand 5.07481 -12.9561 0
rfingers 7.12502 0 0
rthumb 30.4051 -760.079 0
511
root 5.8752 16.2161 -5.26475 -163.702 79.0041 -168.702
lfemur -25.6058 -15.4821 -22.4629
ltibia 54.2114 0 0
lfoot -26.497 -4.4144 0
ltoes 7.82025 0 0
rfemur -56.8585 6.25795 4.43293
rtibia 60.8001 0 0
rfoot 10.0697 9.36336 0
rtoes -20.2407 0 0
lowerback 8.65322 0.139535 -0.462534
upperback 1.65357 0.395127 3.03344
thorax -3.16681 0.270059 3.36205
lowerneck -8.43834 -12.0941 -3.7415
upperneck 11.2061 -16.1173 2.74781
head 5.30839 -7.84541 0.228232
lclavicle -1.81823e-14 1.33632e-14 0
lhumerus -47.2738 -33.4176 117.105
lradius 57.3325 0 0
lwrist 7.85894 0 0
lhand 3.59664 -1.05041 0
lfingers 7.12502 0 0
lthumb 28.9994 26.3837 0
rclavicle -1.81823e-14 1.33632e-14 0
rhumerus -19.3156 40.5031 -82.7426
rradius 112.234 0 0
rwrist -3.72644 0 0
rhand 3.40579 -13.4831 0
rfingers 7.12502 0 0
rthumb 28.803 -760.785 0
512
root 5.95487 16.1516 -5.19415 -164.531 77.387 -169.464
lfemur -25.9169 -14.7359 -22.4748
ltibia 55.615 0 0
lfoot -26.7845 -3.72915 0
ltoes 6.66404 0 0
rfemur -56.1877 5.98504 3.72193
rtibia 59.4477 0 0
rfoot 10.3273 9.45805 0
rtoes -21.5048 0 0
lowerback 8.91418 0.202532 -0.284588
upperback 1.87608 0.534871 3.31948
thorax -3.09179 0.348989 3.54426
lowerneck -8.25025 -12.3866 -3.96411
upperneck 11.3537 -16.5113 2.92071
head 5.37713 -8.03185 0.276943
lclavicle -2.04896e-14 1.31934e-14 0
lhumerus -47.0162 -32.993 116.91
lradius 57.5714 0 0
lwrist 8.63507 0 0
lhand 2.1138 -1.5052 0
lfingers 7.12502 0 0
lthumb 27.5769 26.1034 0
rclavicle -2.04896e-14 1.31934e-14 0
rhumerus -16.7124 38.3012 -82.1539
rradius 114.094 0 0
rwrist -7.12 0 0
rhand 1.5604 -14.0658 0
rfingers 7.12502 0 0
rthumb 27.0316 -761.566 0
513
root 6.04047 16.0822 -5.11831 -165.423 75.6496 -170.282
lfemur -26.2511 -13.9342 -22.4875
ltibia 57.1229 0 0
lfoot -27.0933 -2.99297 0
ltoes 5.42189 0 0
rfemur -55.4671 5.69185 2.95806
rtibia 57.9948 0 0
rfoot 10.6041 9.55977 0
rtoes -22.8629 0 0
lowerback 9.19453 0.270211 -0.0934143
upperback 2.11514 0.685004 3.62678
thorax -3.01119 0.433786 3.74002
lowerneck -8.04819 -12.7008 -4.20328
upperneck 11.5123 -16.9347 3.10646
head 5.45098 -8.23216 0.329274
lclavicle -2.29684e-14 1.3011e-14 0
lhumerus -46.7395 -32.5368 116.701
lradius 57.8281 0 0
lwrist 9.46889 0 0
lhand 0.520735 -1.99379 0
lfingers 7.12502 0 0
lthumb 26.0487 25.8023 0
rclavicle -2.29684e-14 1.3011e-14 0
rhumerus -13.9158 35.9356 -81.5215
rradius 116.092 0 0
rwrist -10.7658 0 0
rhand -0.422172 -14.6918 0
rfingers 7.12502 0 0
rthumb 25.1284 -762.405 0
514
root 6.13029 16.0095 -5.03871 -166.359 73.8263 -171.141
lfemur -26.6019 -13.0929 -22.5009
ltibia 58.7053 0 0
lfoot -27.4174 -2.2204 0
ltoes 4.11835 0 0
rfemur -54.7109 5.38417 2.15645
rtibia 56.4701 0 0
rfoot 10.8945 9.66653 0
rtoes -24.2881 0 0
lowerback 9.48874 0.341236 0.107208
upperback 2.36601 0.842556 3.94927
thorax -2.92661 0.522774 3.94545
lowerneck -7.83613 -13.0306 -4.45427
upperneck 11.6788 -17.379 3.30139
head 5.52849 -8.44236 0.384192
lclavicle -2.55697e-14 1.28196e-14 0
lhumerus -46.4491 -32.0581 116.481
lradius 58.0975 0 0
lwrist 10.3439 0 0
lhand -1.15107 -2.50654 0
lfingers 7.12502 0 0
lthumb 24.445 25.4863 0
rclavicle -2.55697e-14 1.28196e-14 0
rhumerus -10.9808 33.4532 -80.8578
rradius 118.189 0 0
rwrist -14.5918 0 0
rhand -2.50273 -15.3487 0
rfingers 7.12502 0 0
rthumb 23.1313 -763.286 0
515
root 6.22265 15.9347 -4.95687 -167.321 71.9516 -172.024
lfemur -26.9625 -12.2278 -22.5147
ltibia 60.3324 0 0
lfoot -27.7507 -1.426 0
ltoes 2.77797 0 0
rfemur -53.9333 5.06779 1.33218
rtibia 54.9023 0 0
rfoot 11.1931 9.7763 0
rtoes -25.7536 0 0
lowerback 9.79127 0.414267 0.313499
upperback 2.62397 1.00456 4.28088
thorax -2.83964 0.614276 4.15668
lowerneck -7.61808 -13.3697 -4.71234
upperneck 11.8499 -17.8358 3.50183
head 5.60818 -8.65851 0.440661
lclavicle -2.82444e-14 1.26227e-14 0
lhumerus -46.1505 -31.5659 116.255
lradius 58.3745 0 0
lwrist 11.2437 0 0
lhand -2.87011 -3.03377 0
lfingers 7.12502 0 0
lthumb 22.796 25.1614 0
rclavicle -2.82444e-14 1.26227e-14 0
rhumerus -7.96299 30.9006 -80.1753
rradius 120.345 0 0
rwrist -18.526 0 0
rhand -4.64208 -16.0242 0
rfingers 7.12502 0 0
rthumb 21.0776 -764.191 0
516
root 6.31586 15.8591 -4.87428 -168.291 70.0596 -172.915
lfemur -27.3265 -11.3548 -22.5285
ltibia 61.9745 0 0
lfoot -28.087 -0.624322 0
ltoes 1.42531 0 0
rfemur -53.1485 4.74852 0.500361
rtibia 53.3201 0 0
rfoot 11.4945 9.88707 0
rtoes -27.2326 0 0
lowerback 10.0966 0.487967 0.521681
upperback 2.8843 1.16805 4.61552
thorax -2.75188 0.706617 4.36985
lowerneck -7.39804 -13.712 -4.97279
upperneck 12.0227 -18.2969 3.70411
head 5.68861 -8.87663 0.497648
lclavicle -3.09438e-14 1.24241e-14 0
lhumerus -45.8491 -31.0692 116.028
lradius 58.6541 0 0
lwrist 12.1517 0 0
lhand -4.60489 -3.56582 0
lfingers 7.12502 0 0
lthumb 21.1318 24.8335 0
rclavicle -3.09438e-14 1.24241e-14 0
rhumerus -4.91751 28.3245 -79.4866
rradius 122.521 0 0
rwrist -22.4961 0 0
rhand -6.80102 -16.7059 0
rfingers 7.12502 0 0
rthumb 19.0052 -765.105 0
517
root 6.40822 15.7843 -4.79244 -169.253 68.1849 -173.798
lfemur -27.6871 -10.4897 -22.5423
ltibia 63.6016 0 0
lfoot -28.4203 0.170078 0
ltoes 0.0849331 0 0
rfemur -52.3709 4.43214 -0.323906
rtibia 51.7523 0 0
rfoot 11.7931 9.99684 0
rtoes -28.6981 0 0
lowerback 10.3991 0.560998 0.727972
upperback 3.14226 1.33005 4.94713
thorax -2.66491 0.798119 4.58108
lowerneck -7.17999 -14.0511 -5.23086
upperneck 12.1938 -18.7537 3.90455
head 5.7683 -9.09278 0.554118
lclavicle -3.36185e-14 1.22272e-14 0
lhumerus -45.5505 -30.577 115.802
lradius 58.9311 0 0
lwrist 13.0514 0 0
lhand -6.32393 -4.09305 0
lfingers 7.12502 0 0
lthumb 19.4828 24.5086 0
rclavicle -3.36185e-14 1.22272e-14 0
rhumerus -1.89966 25.7719 -78.8041
rradius 124.677 0 0
rwrist -26.4302 0 0
rhand -8.94037 -17.3814 0
rfingers 7.12502 0 0
rthumb 16.9516 -766.01 0
518
root 6.49804 15.7116 -4.71284 -170.189 66.3616 -174.657
lfemur -28.0379 -9.64835 -22.5557
ltibia 65.184 0 0
lfoot -28.7444 0.942646 0
ltoes -1.21861 0 0
rfemur -51.6147 4.12446 -1.12552
rtibia 50.2276 0 0
rfoot 12.0836 10.1036 0
rtoes -30.1233 0 0
lowerback 10.6933 0.632023 0.928594
upperback 3.39313 1.48761 5.26962
thorax -2.58033 0.887107 4.78651
lowerneck -6.96793 -14.3809 -5.48185
upperneck 12.3603 -19.198 4.09948
head 5.84581 -9.30298 0.609035
lclavicle -3.62198e-14 1.20358e-14 0
lhumerus -45.2601 -30.0983 115.582
lradius 59.2005 0 0
lwrist 13.9265 0 0
lhand -7.99573 -4.6058 0
lfingers 7.12502 0 0
lthumb 17.8791 24.1926 0
rclavicle -3.62198e-14 1.20358e-14 0
rhumerus 1.03525 23.2895 -78.1404
rradius 126.774 0 0
rwrist -30.2563 0 0
rhand -11.0209 -18.0383 0
rfingers 7.12502 0 0
rthumb 14.9544 -766.891 0
519
root 6.58364 15.6422 -4.637 -171.081 64.6242 -175.475
lfemur -28.3721 -8.84666 -22.5684
ltibia 66.6919 0 0
lfoot -29.0532 1.67883 0
ltoes -2.46076 0 0
rfemur -50.8941 3.83127 -1.88939
rtibia 48.7747 0 0
rfoot 12.3603 10.2053 0
rtoes -31.4814 0 0
lowerback 10.9737 0.699702 1.11977
upperback 3.63219 1.63774 5.57692
thorax -2.49973 0.971904 4.98227
lowerneck -6.76587 -14.6951 -5.72102
upperneck 12.5189 -19.6214 4.28523
head 5.91966 -9.50329 0.661367
lclavicle -3.86986e-14 1.18534e-14 0
lhumerus -44.9834 -29.6421 115.373
lradius 59.4572 0 0
lwrist 14.7603 0 0
lhand -9.5888 -5.09439 0
lfingers 7.12502 0 0
lthumb 16.3509 23.8915 0
rclavicle -3.86986e-14 1.18534e-14 0
rhumerus 3.83194 20.9239 -77.508
rradius 128.772 0 0
rwrist -33.9021 0 0
rhand -13.0035 -18.6643 0
rfingers 7.12502 0 0
rthumb 13.0513 -767.73 0
520
root 6.66331 15.5777 -4.5664 -171.91 63.0071 -176.237
lfemur -28.6832 -8.10044 -22.5803
ltibia 68.0955 0 0
lfoot -29.3407 2.36408 0
ltoes -3.61697 0 0
rfemur -50.2233 3.55836 -2.60039
rtibia 47.4223 0 0
rfoot 12.6179 10.3 0
rtoes -32.7455 0 0
lowerback 11.2346 0.762698 1.29771
upperback 3.8547 1.77748 5.86296
thorax -2.42471 1.05083 5.16448
lowerneck -6.57778 -14.9876 -5.94363
upperneck 12.6665 -20.0154 4.45813
head 5.9884 -9.68973 0.710077
lclavicle -4.10059e-14 1.16836e-14 0
lhumerus -44.7258 -29.2175 115.178
lradius 59.6961 0 0
lwrist 15.5364 0 0
lhand -11.0716 -5.54918 0
lfingers 7.12502 0 0
lthumb 14.9284 23.6112 0
rclavicle -4.10059e-14 1.16836e-14 0
rhumerus 6.43512 18.722 -76.9193
rradius 130.632 0 0
rwrist -37.2956 0 0
rhand -14.8489 -19.247 0
rfingers 7.12502 0 0
rthumb 11.2799 -768.511 0
521
root 6.73536 15.5193 -4.50255 -172.661 61.5445 -176.926
lfemur -28.9645 -7.42553 -22.5911
ltibia 69.3649 0 0
lfoot -29.6007 2.98383 0
ltoes -4.66267 0 0
rfemur -49.6167 3.31154 -3.24345
rtibia 46.1992 0 0
rfoot 12.8509 10.3856 0
rtoes -33.8888 0 0
lowerback 11.4706 0.819674 1.45865
upperback 4.05595 1.90387 6.12167
thorax -2.35686 1.12222 5.32927
lowerneck -6.40767 -15.2522 -6.14497
upperneck 12.8001 -20.3718 4.61451
head 6.05058 -9.85836 0.754132
lclavicle -4.30926e-14 1.15301e-14 0
lhumerus -44.4929 -28.8335 115.002
lradius 59.9122 0 0
lwrist 16.2384 0 0
lhand -12.4128 -5.9605 0
lfingers 7.12502 0 0
lthumb 13.6419 23.3578 0
rclavicle -4.30926e-14 1.15301e-14 0
rhumerus 8.7895 16.7306 -76.3869
rradius 132.314 0 0
rwrist -40.3649 0 0
rhand -16.5179 -19.774 0
rfingers 7.12502 0 0
rthumb 9.67772 -769.217 0
